<svg width="256" height="256" viewBox="0 0 256 256" fill="none" xmlns="http://www.w3.org/2000/svg">
  <!-- Dark background with subtle gradient -->
  <rect width="256" height="256" rx="24" fill="url(#paint0_radial)"/>
  
  <!-- Calendar icon base -->
  <rect x="48" y="64" width="160" height="140" rx="12" stroke="#00FFAA" stroke-width="8" stroke-linejoin="round"/>
  
  <!-- Calendar top part -->
  <path d="M48 84C48 72.9543 56.9543 64 68 64H188C199.046 64 208 72.9543 208 84V96H48V84Z" fill="#00FFAA" fill-opacity="0.2"/>
  
  <!-- Calendar days indicator -->
  <rect x="72" y="112" width="24" height="24" rx="4" stroke="#00AAFF" stroke-width="4"/>
  <rect x="116" y="112" width="24" height="24" rx="4" stroke="#00AAFF" stroke-width="4"/>
  <rect x="160" y="112" width="24" height="24" rx="4" stroke="#00AAFF" stroke-width="4"/>
  <rect x="72" y="152" width="24" height="24" rx="4" stroke="#00AAFF" stroke-width="4"/>
  <rect x="116" y="152" width="24" height="24" rx="4" stroke="#00AAFF" stroke-width="4"/>
  <rect x="160" y="152" width="24" height="24" rx="4" fill="#FF0080" fill-opacity="0.5" stroke="#FF0080" stroke-width="4"/>
  
  <!-- Money/finance icon -->
  <circle cx="72" cy="72" r="16" fill="#121212" stroke="#00FFAA" stroke-width="4"/>
  <path d="M72 64V80" stroke="#00FFAA" stroke-width="3" stroke-linecap="round"/>
  <path d="M78 70H66" stroke="#00FFAA" stroke-width="3" stroke-linecap="round"/>
  
  <!-- Health icon -->
  <circle cx="184" cy="72" r="16" fill="#121212" stroke="#FF0080" stroke-width="4"/>
  <path d="M184 64V80" stroke="#FF0080" stroke-width="3" stroke-linecap="round"/>
  <path d="M192 72H176" stroke="#FF0080" stroke-width="3" stroke-linecap="round"/>
  
  <!-- Chart/graphs -->
  <path d="M80 224H176" stroke="#00AAFF" stroke-width="4" stroke-linecap="round"/>
  <path d="M96 224L96 200" stroke="#00FFAA" stroke-width="8" stroke-linecap="round"/>
  <path d="M128 224L128 184" stroke="#00AAFF" stroke-width="8" stroke-linecap="round"/>
  <path d="M160 224L160 192" stroke="#FF0080" stroke-width="8" stroke-linecap="round"/>
  
  <!-- Outer glow -->
  <rect x="4" y="4" width="248" height="248" rx="22" stroke="url(#paint1_radial)" stroke-width="2"/>
  
  <!-- Gradients -->
  <defs>
    <radialGradient id="paint0_radial" cx="0" cy="0" r="1" gradientUnits="userSpaceOnUse" gradientTransform="translate(128 128) rotate(90) scale(128)">
      <stop offset="0" stop-color="#141414"/>
      <stop offset="1" stop-color="#0A0A0A"/>
    </radialGradient>
    <radialGradient id="paint1_radial" cx="0" cy="0" r="1" gradientUnits="userSpaceOnUse" gradientTransform="translate(128 128) rotate(90) scale(180)">
      <stop offset="0" stop-color="#00FFAA" stop-opacity="0.6"/>
      <stop offset="0.5" stop-color="#00AAFF" stop-opacity="0.3"/>
      <stop offset="1" stop-color="#FF0080" stop-opacity="0.6"/>
    </radialGradient>
  </defs>
</svg>
